<svg width="31" height="30" viewBox="0 0 31 30" fill="none"
    xmlns="http://www.w3.org/2000/svg">
    <path d="M6.03414 1.2793C4.16317 1.2793 2.28987 2.68252 2.28987 5.48897L6.03414 12.9728L9.77608 5.48897C9.77608 2.68252 7.90511 1.2793 6.03414 1.2793ZM22.5396 3.55954C22.1362 3.57649 21.7444 3.65309 21.417 3.72325L21.6392 4.75228C21.9666 4.6792 22.3057 4.63301 22.5922 4.61196L22.5396 3.55954ZM6.03414 3.61801C7.06902 3.61801 7.90511 4.45585 7.90511 5.48897C7.90511 6.52385 7.06902 7.35994 6.03414 7.35994C5.00102 7.35994 4.16317 6.52385 4.16317 5.48897C4.16317 4.45585 5.00102 3.61801 6.03414 3.61801ZM23.7031 3.6297L23.5277 4.66458C23.8142 4.7248 24.1007 4.80022 24.3521 4.95107L24.8608 4.02728C24.5041 3.83726 24.1065 3.66653 23.7031 3.6297ZM20.3412 4.02143C19.9845 4.16059 19.6279 4.28512 19.3239 4.40732L19.739 5.37204C20.0606 5.23522 20.3997 5.11595 20.6862 5.01539L20.3412 4.02143ZM25.8196 4.8049L25.0186 5.48897C25.2291 5.72986 25.3928 6.02688 25.5214 6.2666L26.4628 5.79301C26.264 5.41004 26.0886 5.12004 25.8196 4.8049ZM18.3474 4.85752C17.9908 5.03936 17.6985 5.20131 17.3827 5.36035L17.8972 6.28414C18.2013 6.10873 18.5345 5.93918 18.8035 5.8047L18.3474 4.85752ZM16.4589 5.9041C16.1491 6.08535 15.845 6.26659 15.5468 6.46539L16.1198 7.3424C16.4063 7.1553 16.7045 6.9799 16.9968 6.8045L16.4589 5.9041ZM26.8253 6.95067C26.4803 7.00914 26.1295 7.05006 25.7845 7.09099C25.8079 7.38333 25.7904 7.69906 25.7319 7.94462L26.7551 8.18434C26.8136 7.76337 26.8662 7.33071 26.8253 6.95067ZM14.6581 7.05006C14.3658 7.24885 14.0793 7.45349 13.787 7.65228L14.395 8.51176C14.6757 8.30712 14.9622 8.11418 15.2487 7.91539L14.6581 7.05006ZM12.9275 8.28373C12.6351 8.49422 12.3311 8.72809 12.0797 8.92103L12.717 9.75712C13.0386 9.52325 13.2608 9.34785 13.5531 9.13152L12.9275 8.28373ZM25.3811 8.75147C25.2057 9.02043 25.0011 9.28938 24.7964 9.49401L25.5624 10.2249C25.8138 9.92668 26.0827 9.62264 26.2698 9.31861L25.3811 8.75147ZM11.2436 9.57587C10.9571 9.79805 10.6706 10.0261 10.4192 10.2366L11.0858 11.0493C11.3606 10.8212 11.6412 10.5874 11.8985 10.4003L11.2436 9.57587ZM24.0714 10.1664C23.8025 10.3827 23.5218 10.5932 23.2646 10.7686L23.8668 11.6339C24.1767 11.4235 24.4807 11.1954 24.7438 10.9849L24.0714 10.1664ZM9.60652 10.9206C9.33172 11.1428 9.06862 11.3767 8.79967 11.6047L9.48374 12.4057C9.74684 12.1777 10.0099 11.9497 10.2789 11.7275L9.60652 10.9206ZM22.4051 11.3299C22.1069 11.5053 21.797 11.6866 21.5164 11.8386L22.0192 12.7682C22.3349 12.5753 22.6916 12.4057 22.9547 12.2303L22.4051 11.3299ZM7.99866 12.3005C7.73555 12.5343 7.47829 12.7682 7.21519 13.0079L7.92265 13.7914C8.17991 13.5575 8.44301 13.3237 8.70027 13.0898L7.99866 12.3005ZM20.5985 12.3239C20.2886 12.4759 19.9787 12.6337 19.6688 12.7857L20.119 13.7329C20.4815 13.5575 20.7505 13.4114 21.0779 13.2593L20.5985 12.3239ZM18.7275 13.2243C18.4059 13.3704 18.096 13.5107 17.7686 13.6452L18.1954 14.6099C18.517 14.4696 18.8386 14.3235 19.1602 14.1773L18.7275 13.2243ZM6.44342 13.7329C6.14523 13.996 5.93767 14.2007 5.6658 14.4638L6.40834 15.2239C6.68313 14.9607 6.90531 14.7327 7.16257 14.5105L6.44342 13.7329ZM16.8097 14.072C16.4882 14.2065 16.1666 14.3468 15.845 14.4813L16.2543 15.4577C16.5817 15.3232 16.9033 15.1829 17.2249 15.0426L16.8097 14.072ZM14.8745 14.8906C14.5529 15.0309 14.2313 15.1712 13.9039 15.2999L14.3132 16.2763C14.6347 16.1418 14.9622 16.0015 15.2837 15.867L14.8745 14.8906ZM25.6793 15.3116C23.8083 15.3116 21.9374 16.7148 21.9374 19.5212L25.6793 27.0051L29.4212 19.5212C29.4212 16.7148 27.5503 15.3116 25.6793 15.3116ZM12.9333 15.7091C12.6001 15.8612 12.2493 16.0015 11.9628 16.1243L12.3779 17.0948C12.7229 16.9487 13.0503 16.8083 13.3426 16.6797L12.9333 15.7091ZM10.9922 16.5394C10.6765 16.6855 10.3081 16.8493 10.0275 16.9779L10.4602 17.9368C10.8051 17.7847 11.1091 17.6327 11.4132 17.5041L10.9922 16.5394ZM9.06277 17.4164C8.73535 17.5743 8.39624 17.738 8.1039 17.8841L8.57749 18.8255C8.89321 18.6618 9.22063 18.5097 9.50713 18.3694L9.06277 17.4164ZM25.6793 17.6503C26.7142 17.6503 27.5503 18.4864 27.5503 19.5212C27.5503 20.5561 26.7142 21.3922 25.6793 21.3922C24.6444 21.3922 23.8083 20.5561 23.8083 19.5212C23.8083 18.4864 24.6444 17.6503 25.6793 17.6503ZM7.15672 18.3694C6.84684 18.539 6.53696 18.7144 6.22124 18.8956L6.74745 19.8077C7.04563 19.6323 7.34967 19.4686 7.6537 19.3049L7.15672 18.3694ZM5.30329 19.4628C4.97529 19.6499 4.6584 19.9013 4.38535 20.0825L5.02265 20.9245C5.31323 20.714 5.62604 20.4976 5.87628 20.3456L5.30329 19.4628ZM3.55511 20.7841C3.27446 21.0414 2.99791 21.3396 2.78334 21.591L3.58434 22.2751C3.80944 22.0003 4.00531 21.7956 4.26842 21.5618L3.55511 20.7841ZM16.2894 20.8601L16.3829 21.9067C16.687 21.8541 16.991 21.8892 17.295 21.9359L17.4763 20.9011C17.0904 20.8426 16.6811 20.8017 16.2894 20.8601ZM14.1144 21.4448L14.512 22.4212C14.816 22.2868 15.1317 22.1815 15.4533 22.0821C15.3422 21.7489 15.2604 21.4097 15.1726 21.0706C14.8043 21.1759 14.436 21.3162 14.1144 21.4448ZM18.6456 21.3922L18.0493 22.2575C18.2948 22.4388 18.5345 22.6317 18.7275 22.8714L19.5226 22.1815C19.2245 21.8775 18.9964 21.591 18.6456 21.3922ZM13.1204 21.9184C12.7989 22.0821 12.489 22.2692 12.1791 22.4505L12.7112 23.3567C13.0152 23.193 13.3134 23.0001 13.6116 22.8422L13.1204 21.9184ZM2.14077 22.5616C1.9642 22.9416 1.82096 23.3509 1.7543 23.7134L2.78918 23.8946C2.85233 23.5614 2.94295 23.3216 3.07567 23.0351C2.75469 22.8948 2.44832 22.7253 2.14077 22.5616ZM11.267 23.0176C10.9688 23.2105 10.6765 23.4035 10.3841 23.6023L10.9688 24.4793C11.2612 24.2864 11.5476 24.0876 11.84 23.8946L11.267 23.0176ZM20.195 23.0878L19.3122 23.6607C19.4993 23.9414 19.6805 24.2337 19.8501 24.5319L20.7622 24.0057C20.5575 23.6783 20.4114 23.386 20.195 23.0878ZM9.51297 24.1987C9.22063 24.3916 8.92829 24.5787 8.6418 24.7833L9.22648 25.6603C9.50713 25.4557 9.80531 25.2628 10.1035 25.064L9.51297 24.1987ZM2.80088 24.7541C2.46235 24.8243 2.1209 24.8827 1.78061 24.947C1.842 25.3563 2.0063 25.7539 2.15481 26.0696L3.10491 25.6136C2.97803 25.3212 2.85759 25.0172 2.80088 24.7541ZM21.2825 24.9178L20.3704 25.444C20.5517 25.7597 20.7622 26.0989 20.9317 26.3678L21.8146 25.8007C21.6158 25.4908 21.4462 25.1985 21.2825 24.9178ZM7.77648 25.3563C7.48414 25.5376 7.19765 25.713 6.89362 25.8825L7.41398 26.8005C7.72386 26.6192 8.03374 26.438 8.33192 26.245L7.77648 25.3563ZM3.60773 26.3093L2.88858 27.0811C3.21366 27.391 3.61475 27.5956 4.05209 27.6892L4.28596 26.666C4.02636 26.6134 3.78372 26.4847 3.60773 26.3093ZM6.00491 26.3269C5.71198 26.4614 5.40795 26.5666 5.09281 26.6309L5.33253 27.6599C5.70789 27.5839 6.06104 27.4436 6.41418 27.2974L6.00491 26.3269ZM22.3934 26.6075L21.5807 27.2682C21.8321 27.5781 22.142 27.8763 22.411 28.0868L23.0599 27.2565C22.8027 27.0577 22.5805 26.818 22.3934 26.6075ZM23.8025 27.6307L23.5394 28.6539C24.0013 28.7474 24.3462 28.7767 24.7789 28.7299L24.6503 27.6833C24.3638 27.7301 24.0831 27.7009 23.8025 27.6307Z" fill="white"/>
</svg>
