<svg width="30" height="30" viewBox="0 0 30 30" fill="none"
    xmlns="http://www.w3.org/2000/svg">
    <path d="M13.0679 19.9059C13.5501 20.3891 14.1692 20.609 14.9252 20.5654C15.6812 20.5229 16.2329 20.2512 16.5803 19.7503L24.7516 8.35907L13.3013 16.4728C12.7807 16.8192 12.4908 17.3574 12.4317 18.0875C12.3726 18.8175 12.5847 19.4226 13.0679 19.9059ZM14.9999 4.05177C16.43 4.05177 17.7314 4.22599 18.9043 4.57443C20.0782 4.92183 21.248 5.45331 22.4136 6.16886L20.9825 7.13797C20.0668 6.63812 19.119 6.25805 18.139 5.99775C17.159 5.73746 16.1126 5.60731 14.9999 5.60731C11.5518 5.60731 8.61543 6.8196 6.19085 9.24418C3.76628 11.6688 2.55451 14.6046 2.55555 18.0517C2.55555 19.1406 2.70488 20.2165 3.00354 21.2794C3.30221 22.3424 3.72324 23.3405 4.26664 24.2739H25.7332C26.3295 23.2887 26.764 22.2646 27.0367 21.2017C27.3095 20.1387 27.4453 19.0369 27.4443 17.8961C27.4443 16.9628 27.324 15.9807 27.0834 14.9499C26.8428 13.9191 26.4622 12.9588 25.9416 12.069L26.9123 10.6379C27.6693 11.9363 28.2049 13.1579 28.5191 14.3028C28.8334 15.4477 28.9936 16.6392 28.9998 17.8775C29.006 19.2152 28.8572 20.4638 28.5534 21.6232C28.2506 22.7826 27.7787 23.9513 27.1378 25.1294C27.0134 25.3368 26.8241 25.5053 26.5701 25.635C26.316 25.7646 26.037 25.8294 25.7332 25.8294H4.26664C3.98146 25.8294 3.71702 25.7599 3.47332 25.621C3.23065 25.481 3.02636 25.2772 2.86043 25.0096C2.34607 24.1022 1.9074 23.0787 1.54444 21.939C1.18148 20.7993 1 19.5035 1 18.0517C1 16.1394 1.36296 14.3344 2.08888 12.6368C2.81377 10.9392 3.80361 9.45262 5.05842 8.17707C6.31322 6.90152 7.79721 5.89457 9.51039 5.1562C11.2236 4.41784 13.0534 4.04969 14.9999 4.05177Z" fill="white"/>
</svg>
