<svg width="31" height="31" viewBox="0 0 31 31" fill="none"
    xmlns="http://www.w3.org/2000/svg">
    <path d="M21.6201 12.6086L19.8087 9.22595L16.2587 8.04262L16.2505 8.06788L10.7331 9.64429C10.3428 9.75708 9.99955 9.99336 9.75489 10.3177C9.51022 10.642 9.37729 11.037 9.37604 11.4432V16.3505H11.247V11.4433L15.5502 10.2138L13.6493 16.0391L13.6403 16.0359L11.9176 20.8595C11.8342 21.089 11.6648 21.2772 11.4452 21.3841C11.2255 21.4911 10.973 21.5084 10.7408 21.4324L6.86544 20.1405L6.27374 21.9154L10.1491 23.2072C10.8454 23.4392 11.6048 23.3892 12.2647 23.068C12.9246 22.7468 13.4324 22.1799 13.6793 21.4887L15.0961 17.5218L16.1001 17.8492L18.9241 20.6732C19.0114 20.7599 19.0806 20.863 19.1277 20.9767C19.1749 21.0903 19.1989 21.2122 19.1986 21.3352V27.5763H21.0696V21.3352C21.0706 20.9665 20.9984 20.6013 20.8573 20.2606C20.7162 19.92 20.509 19.6107 20.2476 19.3507L17.4256 16.5288L18.9916 11.7299L20.1182 13.7578C20.2398 13.9765 20.4176 14.1587 20.6333 14.2856C20.8489 14.4125 21.0946 14.4795 21.3448 14.4796H26.2148V12.6086H21.6201ZM17.7269 7.32937C18.0944 7.63647 18.5556 7.80905 19.0344 7.81863C19.5132 7.82822 19.981 7.67422 20.3605 7.38208C20.74 7.08994 21.0085 6.67712 21.1217 6.21177C21.2349 5.74643 21.1861 5.25639 20.9832 4.82257C20.7803 4.38875 20.4356 4.03708 20.0059 3.82564C19.5761 3.61419 19.0872 3.55561 18.6197 3.65956C18.1522 3.76351 17.7341 4.02378 17.4345 4.3974C17.1349 4.77102 16.9716 5.23564 16.9717 5.71455C16.9711 6.02268 17.0385 6.32713 17.1691 6.60625C17.2996 6.88536 17.49 7.13226 17.7269 7.32937Z" fill="white"/>
</svg>
